<?xml version="1.0" standalone="no"?><!DOCTYPE svg PUBLIC "-//W3C//DTD SVG 1.1//EN" "http://www.w3.org/Graphics/SVG/1.1/DTD/svg11.dtd"><svg t="1625637653924" class="icon" viewBox="0 0 1024 1024" version="1.1" xmlns="http://www.w3.org/2000/svg" p-id="4493" xmlns:xlink="http://www.w3.org/1999/xlink" width="200" height="200"><defs><style type="text/css"></style></defs><path d="M854.137923 867.705263a88.158215 88.158215 0 0 0 12.135134-44.818625v-66.650189c0-97.425288-88.484187-181.56238-216.28684-220.489195 51.149523-48.714469 83.434064-120.319909 83.434064-200.212075 0-48.224295-11.781188-93.44187-32.327112-132.411255 92.24502 6.908646 165.181104 93.309292 165.181104 198.83886 0 68.863875-31.003765 129.574819-78.252579 165.356253 122.712392 26.572745 211.104139 101.105845 211.10414 188.917412v67.181717c0 24.458796-19.827084 44.285881-44.283448 44.285881h-100.704463zM379.139317 556.957284C256.870879 556.957284 157.718429 447.930822 157.718429 313.394672c0-134.534934 99.15245-243.566262 221.420888-243.566262 122.272088 0 221.423321 109.031327 221.423322 243.566262 0 134.536151-99.151234 243.562613-221.423322 243.562612z m354.279747 310.216451c0 48.913944-39.656601 88.566896-88.571761 88.566896H113.431332c-48.912727 0-88.566896-39.654169-88.566896-88.566896v-66.650189c0-134.534934 158.628837-243.566262 354.274881-243.566262 195.650909 0 354.279747 109.031327 354.279747 243.566262v66.650189z m0 0" p-id="4494"></path></svg>